<svg id="logo_appbar" xmlns="http://www.w3.org/2000/svg" xmlns:xlink="http://www.w3.org/1999/xlink" width="30" height="30" viewBox="0 0 30 30">
  <defs>
    <clipPath id="clip-path">
      <rect id="사각형_58" data-name="사각형 58" width="30" height="30" transform="translate(100.898 3848.898)" fill="#fff" stroke="#707070" stroke-width="1"/>
    </clipPath>
    <linearGradient id="linear-gradient" x1="0.499" y1="0.384" x2="0.499" y2="1.172" gradientUnits="objectBoundingBox">
      <stop offset="0" stop-color="#1e479c"/>
      <stop offset="1" stop-color="#15eeff"/>
    </linearGradient>
    <linearGradient id="linear-gradient-2" x1="1.101" y1="0.479" x2="-0.129" y2="0.479" xlink:href="#linear-gradient"/>
    <linearGradient id="linear-gradient-3" x1="0.166" y1="0.479" x2="1.263" y2="0.479" xlink:href="#linear-gradient"/>
    <linearGradient id="linear-gradient-4" x1="0.421" y1="0.675" x2="0.846" y2="-0.194" xlink:href="#linear-gradient"/>
    <linearGradient id="linear-gradient-5" x1="-0.047" y1="0.609" x2="0.499" y2="0.346" gradientUnits="objectBoundingBox">
      <stop offset="0" stop-color="#fff" stop-opacity="0.302"/>
      <stop offset="1" stop-color="#fff" stop-opacity="0"/>
    </linearGradient>
    <linearGradient id="linear-gradient-6" x1="0.499" y1="0.215" x2="0.499" y2="0.618" gradientUnits="objectBoundingBox">
      <stop offset="0" stop-opacity="0.302"/>
      <stop offset="1" stop-opacity="0"/>
    </linearGradient>
    <linearGradient id="linear-gradient-7" x1="0.228" y1="0.081" x2="0.357" y2="0.332" xlink:href="#linear-gradient-6"/>
    <linearGradient id="linear-gradient-8" x1="0.282" y1="0.853" x2="0.539" y2="0.563" xlink:href="#linear-gradient-6"/>
    <radialGradient id="radial-gradient" cx="0.266" cy="0.318" r="0.382" gradientTransform="matrix(0.497, 0, 0, 1, 0.134, 0)" xlink:href="#linear-gradient-5"/>
  </defs>
  <g id="LOGO" transform="translate(-100.898 -3848.898)" clip-path="url(#clip-path)">
    <g id="Layer_2" data-name="Layer 2" transform="translate(100.999 3849.041)">
      <g id="레이어_1" data-name="레이어 1" transform="translate(0)">
        <path id="패스_33" data-name="패스 33" d="M6.209,16.556v-.426a8.63,8.63,0,0,1,5.143-7.678S7.184,8.9,0,16.259A14.871,14.871,0,0,0,11.343,30.741C4.283,23.676,5.8,17.774,6.209,16.556Z" transform="translate(0 -1.456)" fill="url(#linear-gradient)"/>
        <path id="패스_34" data-name="패스 34" d="M11.353,7A8.813,8.813,0,0,1,15.013,6.2H29.8V0H15.054A14.978,14.978,0,0,0,0,14.711V14.8C7.184,7.445,11.353,7,11.353,7Z" transform="translate(0)" fill="url(#linear-gradient-2)"/>
        <path id="패스_35" data-name="패스 35" d="M12.552,25.894h0a8.657,8.657,0,0,1-5.139-7.651c-.412,1.2-1.926,7.1,5.134,14.185a14.766,14.766,0,0,0,11.9-2.169C15.655,30.25,12.552,25.894,12.552,25.894Z" transform="translate(-1.204 -3.143)" fill="url(#linear-gradient-3)"/>
        <path id="패스_36" data-name="패스 36" d="M31.574,21.739a3.038,3.038,0,0,0-2.956-3.789H28.5a3.061,3.061,0,0,0-2.951,2.288,8.667,8.667,0,0,1-8.342,6.351,8.529,8.529,0,0,1-3.5-.746h0s3.1,4.356,11.9,4.361a14.881,14.881,0,0,0,5.967-8.465Z" transform="translate(-2.362 -3.093)" fill="url(#linear-gradient-4)"/>
        <path id="패스_37" data-name="패스 37" d="M11.353,7A8.813,8.813,0,0,1,15.013,6.2H29.8V0H15.054A14.978,14.978,0,0,0,0,14.711V14.8C7.184,7.445,11.353,7,11.353,7Z" transform="translate(0)" fill="url(#linear-gradient-5)"/>
        <path id="패스_38" data-name="패스 38" d="M6.209,16.556v-.426a8.63,8.63,0,0,1,5.143-7.678S7.184,8.9,0,16.259A14.871,14.871,0,0,0,11.343,30.741C4.283,23.676,5.8,17.774,6.209,16.556Z" transform="translate(0 -1.456)" fill="url(#linear-gradient-6)"/>
        <path id="패스_39" data-name="패스 39" d="M12.552,25.894h0a8.657,8.657,0,0,1-5.139-7.651c-.412,1.2-1.926,7.1,5.134,14.185a14.766,14.766,0,0,0,11.9-2.169C15.655,30.25,12.552,25.894,12.552,25.894Z" transform="translate(-1.204 -3.143)" fill="url(#linear-gradient-7)"/>
        <path id="패스_40" data-name="패스 40" d="M31.574,21.739a3.038,3.038,0,0,0-2.956-3.789H28.5a3.061,3.061,0,0,0-2.951,2.288,8.667,8.667,0,0,1-8.342,6.351,8.529,8.529,0,0,1-3.5-.746h0s3.1,4.356,11.9,4.361a14.881,14.881,0,0,0,5.967-8.465Z" transform="translate(-2.362 -3.093)" fill="url(#linear-gradient-8)"/>
        <path id="패스_41" data-name="패스 41" d="M11.353,7A8.813,8.813,0,0,1,15.013,6.2H29.8V0H15.054A14.978,14.978,0,0,0,0,14.711V14.8C7.184,7.445,11.353,7,11.353,7Z" transform="translate(0)" fill="url(#radial-gradient)"/>
        <path id="패스_42" data-name="패스 42" d="M11.447,3.748h-.087" transform="translate(-1.957 -0.646)" fill="none"/>
      </g>
    </g>
  </g>
</svg>
